<svg width="13" height="16" viewBox="0 0 13 16" fill="none" xmlns="http://www.w3.org/2000/svg">
<path d="M8.33985 8.75456C8.98167 8.43967 9.46989 7.98069 9.84291 7.39895C10.1391 6.93463 10.3037 6.42761 10.3476 5.87789C10.3586 5.73913 10.375 5.6057 10.3805 5.46694C10.3805 5.2748 10.4792 5.14671 10.6548 5.06666C10.8468 4.9866 11.0168 5.03464 11.154 5.17874C11.3515 5.38688 11.5435 5.60036 11.7135 5.82986C12.3444 6.66777 12.7558 7.60176 12.9149 8.63181C13.2001 10.4784 12.7722 12.1543 11.5764 13.6166C10.578 14.8388 9.27241 15.5913 7.69255 15.8849C7.24822 15.9649 6.7984 16.0129 6.34309 15.9969C4.93877 15.9489 3.67159 15.5273 2.55801 14.6894C1.36764 13.7981 0.588678 12.6399 0.210171 11.2256C0.0291454 10.5905 -0.00925389 9.94472 0.00171734 9.29894C0.0236598 7.94333 0.478966 6.73715 1.36215 5.70177C1.70774 5.29615 2.12465 4.93857 2.51961 4.57565C3.02978 4.10599 3.57834 3.67369 4.03913 3.15599C4.49444 2.64364 4.86197 2.08325 5.04848 1.42679C5.13625 1.11724 5.17465 0.797019 5.18562 0.476797C5.19111 0.279326 5.26242 0.135225 5.44345 0.0444957C5.62996 -0.0462342 5.79453 0.0124734 5.95361 0.124551C7.00685 0.882412 7.80775 1.83774 8.33985 3.00656C8.65253 3.69504 8.85002 4.41554 8.9323 5.16272C9.05847 6.33688 8.88293 7.47367 8.42214 8.5731C8.39471 8.63714 8.36728 8.70119 8.34534 8.77057L8.33985 8.75456Z" fill="#3A86FF"/>
</svg>
